<svg width="246" height="37" viewBox="0 0 246 37" fill="none" xmlns="http://www.w3.org/2000/svg">
<path d="M15.4895 30.2403C10.6068 30.2403 6.79624 29.2405 4.05795 27.2409C1.35265 25.2413 0 22.4085 0 18.7425C0 15.1372 1.22068 12.2892 3.66205 10.1987C6.13641 8.10824 9.683 7.06299 14.3018 7.06299C17.238 7.06299 19.7454 7.56289 21.8238 8.5627C23.9353 9.5625 25.5189 10.9259 26.5746 12.6528C27.6633 14.3797 28.2077 16.3188 28.2077 18.4699V21.4238H10.5903C11.547 22.9993 13.7079 23.787 17.0731 23.787C18.6237 23.787 20.2403 23.681 21.9228 23.4689C23.6384 23.2265 25.09 22.8932 26.2777 22.4691V28.6043C24.958 29.089 23.325 29.4829 21.3785 29.7858C19.465 30.0888 17.502 30.2403 15.4895 30.2403ZM17.7164 15.834C17.3205 14.3192 16.1163 13.5617 14.1038 13.5617C12.1574 13.5617 10.9862 14.3192 10.5903 15.834H17.7164Z" fill="#E6E2DD"/>
<path d="M39.9007 29.4411C36.8211 29.4411 34.364 28.8414 32.5293 27.6421C30.6947 26.4135 29.7773 24.6291 29.7773 22.2889C29.7773 19.9194 30.6619 18.1204 32.431 16.8918C34.2329 15.6632 36.8866 15.0489 40.3921 15.0489C41.4405 15.0489 42.5871 15.1659 43.8321 15.3999C45.077 15.6047 46.109 15.8533 46.928 16.1459V15.7948C46.928 15.0343 46.3875 14.4346 45.3063 13.9958C44.2252 13.557 42.8001 13.3376 41.0309 13.3376C38.1807 13.3376 35.5761 13.8642 33.2173 14.9173V8.64262C34.2984 8.17458 35.7236 7.7943 37.4927 7.50178C39.2618 7.20925 41.2111 7.06299 43.3406 7.06299C48.0583 7.06299 51.6784 7.83818 54.2011 9.38855C56.7237 10.9389 57.985 13.1329 57.985 15.9703V28.7829H47.5669V27.2472C46.8133 27.8615 45.7322 28.3734 44.3235 28.7829C42.9475 29.2217 41.4732 29.4411 39.9007 29.4411ZM43.4389 24.0001C44.1269 24.0001 44.7821 23.8831 45.4046 23.6491C46.0598 23.4151 46.5676 23.1226 46.928 22.7715V21.3674C45.8469 20.8116 44.6839 20.5337 43.4389 20.5337C42.7509 20.5337 42.2104 20.6946 41.8172 21.0164C41.4241 21.3382 41.2275 21.7623 41.2275 22.2889C41.2275 22.7862 41.4077 23.1957 41.7681 23.5175C42.1612 23.8392 42.7182 24.0001 43.4389 24.0001Z" fill="#E6E2DD"/>
<path d="M74.2075 29.4411C71.7043 29.4411 69.1018 29.2802 66.3999 28.9584C63.7378 28.6366 61.612 28.1686 60.0227 27.5543V20.8848C61.6915 21.5868 63.7378 22.1865 66.1615 22.6838C68.5852 23.1811 70.7507 23.4297 72.6579 23.4297C73.5717 23.4297 74.2273 23.4005 74.6247 23.342C75.022 23.2835 75.2207 23.1518 75.2207 22.947C75.2207 22.8008 75.0419 22.6838 74.6843 22.596C74.3267 22.5083 73.8499 22.4205 73.2539 22.3327C71.8235 22.128 70.552 21.9086 69.4395 21.6746C65.8238 20.8555 63.261 19.9194 61.7511 18.8663C60.281 17.784 59.5459 16.2629 59.5459 14.303C59.5459 11.8458 60.8571 10.0321 63.4795 8.86201C66.1019 7.66266 69.7176 7.06299 74.3267 7.06299C76.4723 7.06299 78.8364 7.2385 81.4191 7.58953C84.0415 7.94056 85.9685 8.39397 87.2003 8.94977V15.6193C86.0083 15.005 84.3196 14.4785 82.1343 14.0397C79.9489 13.5716 78.002 13.3376 76.2935 13.3376C75.4988 13.3376 74.8432 13.3815 74.3267 13.4693C73.8101 13.557 73.5519 13.674 73.5519 13.8203C73.5519 13.9666 73.7704 14.0982 74.2075 14.2152C74.6445 14.3322 75.3399 14.4492 76.2935 14.5662C78.1609 14.8295 79.2139 14.9904 79.4523 15.0489C82.0747 15.5462 84.0812 16.1312 85.4719 16.804C86.9023 17.4476 87.8757 18.2082 88.3923 19.0857C88.9485 19.9633 89.2267 21.0749 89.2267 22.4205C89.2267 24.5559 87.9353 26.2672 85.3527 27.5543C82.77 28.8122 79.0549 29.4411 74.2075 29.4411Z" fill="#E6E2DD"/>
<path d="M99.4866 36.8127C98.4145 36.8127 97.27 36.7249 96.053 36.5494C94.865 36.3739 93.9957 36.1545 93.4452 35.8912V28.6074C94.3434 28.9877 95.3721 29.1778 96.5311 29.1778C97.3714 29.1778 98.0233 29.0023 98.487 28.6513C98.9795 28.3002 99.3562 27.7737 99.617 27.0716L99.8343 26.4573L90.7939 7.06299H100.573L105.006 19.0857L109.222 7.06299H119.002L110.917 28.1247C109.787 31.0792 108.31 33.2585 106.484 34.6626C104.688 36.096 102.355 36.8127 99.4866 36.8127Z" fill="#E6E2DD"/>
<path d="M120.571 7.17637H120.471V7.27637V28.9135V29.0135H120.571H130.609H130.709V28.9135V20.5536H138.641V28.9135V29.0135H138.741H148.779H148.879V28.9135V7.27637V7.17637H148.779H138.741H138.641V7.27637V13.4584H130.709V7.27637V7.17637H130.609H120.571Z" fill="#E6E2DD" stroke="#E6E2DD" stroke-width="0.2"/>
<path d="M180.122 7.23391H189.221V9.51612C190.891 7.84977 192.986 7.0166 195.506 7.0166C197.001 7.0166 198.202 7.22868 199.111 7.65284C200.048 8.0467 200.84 8.65265 201.484 9.47067C202.363 8.71324 203.389 8.12245 204.561 7.69829C205.733 7.24383 206.949 7.0166 208.209 7.0166C211.11 7.0166 213.162 7.78918 214.363 9.33433C215.565 10.8795 216.165 13.1063 216.165 16.0149V29.1732H206.715V17.5146C206.715 16.6359 206.568 15.9846 206.275 15.5604C206.012 15.1362 205.513 14.9242 204.781 14.9242C204.165 14.9242 203.609 15.0756 203.111 15.3786V29.1732H193.66V17.0147C193.66 16.3178 193.528 15.8028 193.265 15.4695C193.001 15.1059 192.561 14.9242 191.946 14.9242C190.95 14.9242 190.158 15.4998 189.572 16.6511V29.1732H180.122V7.23391Z" fill="#E6E2DD"/>
<path d="M233.222 29.6851C228.339 29.6851 224.529 28.6853 221.79 26.6857C219.085 24.6861 217.732 21.8533 217.732 18.1874C217.732 14.582 218.953 11.7341 221.394 9.64357C223.869 7.55307 227.415 6.50781 232.034 6.50781C234.97 6.50781 237.478 7.00772 239.556 8.00752C241.668 9.00733 243.251 10.3707 244.307 12.0976C245.396 13.8246 245.94 15.7636 245.94 17.9147V20.8687H228.323C229.279 22.4441 231.44 23.2318 234.805 23.2318C236.356 23.2318 237.973 23.1258 239.655 22.9137C241.371 22.6713 242.822 22.3381 244.01 21.9139V28.0491C242.69 28.5338 241.057 28.9277 239.111 29.2307C237.197 29.5336 235.234 29.6851 233.222 29.6851ZM235.449 15.2788C235.053 13.764 233.849 13.0066 231.836 13.0066C229.89 13.0066 228.719 13.764 228.323 15.2788H235.449Z" fill="#E6E2DD"/>
<path d="M164.693 0C156.903 0 150.589 6.3145 150.589 14.1038C150.589 21.8932 156.903 28.2077 164.693 28.2077C172.482 28.2077 178.797 21.8932 178.797 14.1038C178.797 6.3145 172.482 0 164.693 0ZM164.693 6.49926L171.579 11.8519V21.7084H166.841L165.476 16.4545H163.909L162.544 21.7084H157.806V11.8519L164.693 6.49926Z" fill="#E6E2DD"/>
</svg>
